# xmcd CD database file
#
# Track frame offsets:
#	150
#	18304
#	37420
#	53349
#	70475
#	88306
#	104237
#	123242
#	137843
#	153791
#	174497
#
# Disc length: 2580 seconds
#
# Revision: 3
# Processed by: cddbd v1.5.2PL0 Copyright (c) Steve Scherf et al.
# Submitted via: CDex 1.70beta3
#
DISCID=990a120b
DTITLE=minato - magnet
DYEAR=1900
DGENRE=Blues
TTITLE0=magnet
TTITLE1=RIP=RELEASE -affection-
TTITLE2=オルゴール
TTITLE3=彼方まで虹を架けて
TTITLE4=MOTTO!!
TTITLE5=FAITH
TTITLE6=朧月
TTITLE7=SECRET and TRAP
TTITLE8=☆Fighting Pose☆
TTITLE9=ありがとう、君へ
TTITLE10=RIP=RELEASE -RIN version-
EXTD=
EXTT0=
EXTT1=
EXTT2=
EXTT3=
EXTT4=
EXTT5=
EXTT6=
EXTT7=
EXTT8=
EXTT9=
EXTT10=
PLAYORDER=
